<svg xmlns="http://www.w3.org/2000/svg" width="454.959" height="72.734" viewBox="0 0 454.959 72.734"><path fill-rule="evenodd" clip-rule="evenodd" fill="#1A171F" d="M449.782 47.818V27.33h-9.22v3.33h-9.215v9.217h-4.078v-15.88h-8.12v9.96h-3.335v4.82h-3.687v11.45h-5.175V27.33l-2.2-1.1-.03-5.318-3.5-1.708-.36-8.22-.186 8.23-3.333 1.84v5.175l-2.198 1.47v17.705h-5.92v8.117h-5.923V37.68h-8.117v4.783h-5.533v11.06h-5.6l.002-.42h.057v-.007l.004-.02.01-.05.003-.022v-.008l-.008-.232h-.063l.002-.69h.038l.004-.04v-.066h.005l.005-.045v-.127h-.052l.003-.33-.29-.004-.283-.03v-.43l-.088-.01v-.206l-.057-.006-.007-.05-.135-.336-.217-.288-.043-.035-.273-.21-.32-.13-.04-.01-.05-.01v-.117h.006l.03-.012.01-.013-.015-.013-.05-.026-.052-.02-.022-.01-.047-.013-.028-.006h-.008v-.3l-.002-.005-.01-.004-.015-.003-.018-.004h-.02v-.639l-.002-.002H362.005l-.007-.003H361.98l-.007.002h-.017v.641h-.013l-.02.004h-.016l-.01.006-.005.004v.297h-.003l-.04.005-.026.005-.052.014-.045.02-.025.008-.05.026-.007.013.015.014.036.013.02.002v.117l-.027.004-.304.115-.056.024-.285.21-.22.28-.14.333-.01.04-.01.06-.09.015v.62l-.393.046-.025-.023-.307-.004-.004.333h-.03l-.03.125.056.04-.01.865-.094.168.02.01.045.02.025.012-.008.52h-4.244V33.956l-12.905-4.43v28.428h-3.332V39.52h-8.474v18.434h-2.977v-5.14h-2.944v-2.587h-7.764v2.586h-2.59v5.532h-4.432v-7.373h-3.687v-2.588h-4.785V40.23h-8.155v8.863h-1.843V0h-14.28v48.384h-4.786v-3.332h-9.252v10.35h-4.663l-.146-20.158-.01-.01-.05-.008-.088-.008-.12-.004h-.042l-.003-.223-.065-.03-.19-.027-.304-.024-.4-.017-.233-.003v-.134l.205-.005.523-.022.43-.033.305-.037.16-.04.002-.042-.002-.108-.16-.04-.315-.035-.448-.026-.55-.017-.152-.002v-.068l.074-.008.107-.016.047-.017v-.585l-.005-.262v-.22l-.002-.216v-.05l-.02-.02-.082-.02-.142-.016h-.008v-.01h.018l.146-.006h.002l.23-.016.125-.01h.008l.175-.02.097-.01h.002l.004-.002.113-.022.062-.014h.004l.01-.005.255-.123.078-.022.007-.022.008-.024v-.098h.002l-.004-.04V32.4l-.32-.163-.12-.037-.227-.032-.324-.026-.076-.002-.09-.047-.102-.068-.093-.078-.083-.09-.073-.095-.06-.104-.052-.11-.037-.115-.027-.008-.05-.008h-.013l-.02-3.355-.005-.01-.024-.006-.04-.008h-.014l-.014-2.537-.006-.006-.015-.007-.03-.007-.03-.002-.015-2.123-.006-.005-.013-.003-.022-.004-.018-.002-.01-1.64-.002-.003-.006-.002-.01-.002-.01-.003h-.024l-.01.003h-.012l-.008.002-.008.003-.004.002v.003l.01 1.64-.02.002-.018.004-.015.004-.007.005v.004l.01 2.116-.018.003-.032.006-.02.006-.01.008.015 2.538-.037.006-.032.008-.013.008.02 3.357-.023.005-.045.007-.022.01-.037.115-.048.112-.06.104-.073.1-.082.09-.092.08-.1.067-.085.048-.137.01-.308.03-.21.037-.098.04-.316.17.015.032v.1l.002.024.002.023.068.02.27.125h.002l.11.022.06.012h.005l.17.016.095.01h.007l.22.014.124.007h.007l.123.003v.01l-.107.013-.106.02-.042.02v.05l.002.218v.218l.002.26v.264l.003.254v.066l.023.017.086.016.143.012h.006v.066l-.273.007-.533.027-.426.034-.288.04-.134.042v.107l.026.04.184.038.324.033.443.024.533.016h.146v.134l-.246.01-.384.02-.287.028-.17.03-.047.032.002.218h-.06l-.122.008-.095.008-.063.008-.022.01.095 20.13h-5.652V41.363h-4.076v-5.918h-10.708v9.606h-4.786v20.965h-1.07l.106-37.854-.07-.113-.17-.106-.27-.09-.34-.07-.394-.046-.42-.015-8.993.004-.41.014-.368.047-.298.07-.21.09-.108.108-.312 29.005-.914-.013-.534.01v-5.684h-5.195v3.016h-1.46v-7.83l-.914-.018V41.32l-.29-.147v-1.49h-1.15l-2.408-5.21-.206-9.25-.21 9.278-2.598 4.967-1.063.056v1.502l-.31.295v5.24l-1.197.002-.003.552-2.597-.88v10.813h-2.045l-.11.004-.372-.04-.087-13.267h-.126l-.01-1.64-.252-.005h-1.116l-.068-11.462-.01-1.796-.003-.395-.276-.04-6.738.056-.29.048v.39l.006 1.79.028 11.23-.14-.004-1.293-.02-1.51-.012-.49-.002.06-7.682-1.064-.132-10.137.056.072-18.983-.107-.214.002-.462.002-.655v-.694l-.997-2.104-.278-.073-7.216.13-.575.34-.236.39-.007.722-.006.687-.004.508-.11.172-.004.55-.296 36.455-1.4-3.033-.038-6.66-.212-3.872-.048-8.87-.383-.077h-.004l-.004-.445-.42-.092h-.045v-.45l-.42-.093h-.04l-.004-.403-.42-.093h-.038v-.482l-.422-.095h-1.67l-.436.094v.482h-.007l-.435.093v.4h-.01l-.437.095.003.45h-.014l-.438.09v.46h-.052l-.39.08.005 8.865-.197 3.872.003 9.218-.498 1.75-.266.008v.055l-.555.017v.058l-.622.025v.063l-.394.01-.038-23.55-.012-8.2-4.06-.955-.113 1.612.06 20.75-2.142.04-.007-.63.01-.006-.015-1.477.077-.002.11-.007.097-.01.076-.017.053-.018.023-.02-.094-9.168-.003-.004-.006-.024-.034-.028-.065-.02-.085-.02-.103-.01-.114-.003h-.078l-3.24-7.162-3.355.028-3.164 7.198h-.027l-.017-.002h-.006l-.114.003-.106.013-.09.016-.07.023-.04.026-.014.026-.02 9.15.015.02.046.018.073.015.09.01.11.01h.065l-.003 1.47.015.017.028.01-.03 16.75-.758.012-.01 7.715h-.597l.006-2.33h-.27V51.013h.27V35.55l-.554-.102V30.22l-.624-.157-.04-.038-.056-.037-.068-.034-.084-.032-.094-.032-.105-.03-.116-.027-.127-.025-.137-.02-.143-.02-.15-.013-.154-.012-.65-.164-.645.16-.155.01-.15.014-.14.017-.135.022-.126.023-.117.027-.103.03-.093.03-.082.032-.066.035-.054.037-.04.036-.614.153v5.232l-.554.1-.006 15.475h.254l-.004 12.66-1.228-.004.018-10.364-2.977-.103-.424.035-.002.61-.02-.008-.786-.03-.564.035.003-2.43-.39-.003.002-2.99-.506-.012-.038-.003-.05-.003-.058-.003-.072-.003h-.078l-.088-.003h-.096l-.1-.004-.108-.002-.11-.002h-.116l-.116-.002-.524-.013-.384.014-.002-1.566-.767-.076-.937.06v2.67l-.354.018.003 2.715-.375.016.002 1.184h-.257l-.14.004h-.032l.002-1.054-.6-.037.002-1-.123-.006-.65.04-.004-4.943-3.04.198.006 5.715-.293.016-.004 13.68h-.036l.002-6.1-1.396-.006-.025-7.343-.697-4.022-.038-13.262-.35-1.115-.033-12.257-.307-.76-.31-.057-.002-.488v-.11l-.22-.042v-.59l-.32-.06V18.875l-.28-.056-3.032.008-.277.055v.1l-.003.825-.32.064v.588l-.204.038v.6l-.313.057-.31.76-.03 12.255-.35 1.115-.03 11.405-.063-.006v-.223l-.07-.006-.91-.01-.073.004-.025.073v.154l-.133.01-.027.082v.127l-.107.007-.028.09v.126l-.122.01-.033.098v.21l-.12.006-.034.108.004 6.268-.075.695-.062-17.852-.003-1.09-.01-2.592h-.024l-.003-.994-.008-1.926-2.77-.012-.062-.213h-.35v.212l-2.406-.01-.14-.214-.36-.002v.215l-2.628-.01.018 1.936.008.995h-.225l.026 2.61.01 1.093.126 12.797-3.268-.067-.176.04v.924l-.073-.003-1.92.336v2.603l-1.306-.224-1.02.014-.025-5.814-.01-.016-.005-12.533-.763-1.265h-.02v-1.007l-.105-.18-8.93.3v23.62l-.955.025.002.357-1.362-.825-.058-40.202-.283-.296-.673-.273-1.026-.23-1.31-.17-1.503-.09-.71-.003v-3.38l-.315-2.813-1.54.067-1.41.165-1.17.25-.852.314-.48.354-.087.37-.005 5.896-.05 46.002-.287.034-.37.075-.054-8.285-.144-1.535-.17-1.373-.182-1.033-.223-.687-.215-.48-1.356-.132-.598.025-.21.474-.217.68-.17 1.033-.138 1.227-.062-13.888-.022-.996-.002-.112-.007-.153-.044-.952-.075-1.102-.1-1.098-.124-1.094-.15-1.09-.175-1.083-.197-1.077-.225-1.07-.247-1.066-.272-1.057-.233-.826.018-.066.07-.264.035-.128.006-.03.004-.027-.2-.002-.013-.254-.02-.29-.024-.29-.028-.29-.032-.29-.036-.288-.04-.29L51 22.26l-.05-.286-.05-.286-.056-.286-.06-.283-6.275-.034-.06.283-.057.284-.052.285-.048.286-.043.288-.042.286-.037.29-.03.29-.03.29-.024.29-.02.29-.015.255h-.19l.036.82-.145.52-.14.53-.132.526-.128.534-.122.533-.115.533-.11.537-.103.54-.098.54-.09.54-.085.543-.15 1.09-.127 1.096-.1 1.1-.077 1.104-.05 1.107-.007.293-.018.818-.062 12.896-1.847-.07.13-34.547.017-4.407-13.078-.166-.01.545.03 4.333.236 34.078h-.44v-1.832l-.007-.008-.018-.006-.027-.006-.036-.006-.67-.016v-1.7l-.004-.02-.02-.022-.036-.02-.052-.02-.068-.02-.714-.036-.002-1.33-.003-.04-.016-.037-.03-.04-.046-.04-.06-.04-2.64-.188v-.147l.002-.007v-.121l.002-.106v-.267l-.002-.14v-.14l-.003-.12v-.098l-.002-.068v-.033h-.082l-.055-.51-1.94-.005.012 1.754-2.578.18-.017.04-.006.04.016 1.445-.816.04-.023.022-.01.02v.02l.02 1.744-.783.018-.033.006-.022.008-.01.005-.002.007.024 1.84-.554.003H15.535l-.02.002h-.012l.03 2.08-.69.02.155 10.654-.947.166.043 2.62h-1.188v-34.63L0 34.307v38.428H454.96V47.818"/></svg>